<?xml version="1.0" standalone="no"?>
<!DOCTYPE svg PUBLIC "-//W3C//DTD SVG 20010904//EN"
 "http://www.w3.org/TR/2001/REC-SVG-20010904/DTD/svg10.dtd">
<svg version="1.0" xmlns="http://www.w3.org/2000/svg"
 width="194.710038pt" height="175.879524pt" viewBox="0 0 194.710038 175.879524"
 preserveAspectRatio="xMidYMid meet">
<metadata>
Created by potrace 1.12, written by Peter Selinger 2001-2015
</metadata>
<g transform="translate(-10.133851,179.877056) scale(0.100000,-0.100000)"
fill="#000000" stroke="none">
<path d="M1985 1771 l-50 -27 -5 -710 c-5 -669 -6 -711 -24 -736 -21 -31 -68
-62 -108 -72 -30 -7 -91 14 -104 36 -7 10 -28 12 -88 8 l-79 -5 62 -62 c67
-66 123 -93 195 -93 84 1 194 73 236 156 l25 49 3 743 c2 408 -1 741 -5 741
-4 -1 -30 -14 -58 -28z"/>
<path d="M294 1771 c-82 -20 -160 -95 -183 -176 -9 -29 -11 -252 -9 -798 l3
-757 52 32 53 33 0 723 c0 696 1 724 19 761 11 21 31 45 45 54 33 22 102 21
143 -1 18 -10 119 -110 224 -222 105 -113 228 -243 273 -290 112 -117 290
-303 421 -441 61 -63 171 -181 245 -262 74 -81 142 -147 151 -147 9 0 28 9 43
21 l26 20 0 664 c0 445 -3 666 -10 670 -6 4 -34 -7 -63 -23 l-52 -29 -3 -267
c-1 -146 -5 -266 -8 -266 -3 0 -17 15 -32 32 -23 28 -162 178 -353 381 l-55
59 -35 -17 c-64 -33 -64 -33 -7 -94 29 -31 102 -110 163 -175 60 -65 158 -170
218 -233 l107 -115 0 -210 0 -211 -83 89 c-46 49 -105 114 -132 144 -26 30
-120 130 -209 221 -157 162 -289 301 -586 618 -156 166 -191 195 -260 210 -51
12 -62 12 -106 2z"/>
<path d="M360 841 c0 -370 3 -671 8 -669 4 2 28 14 54 28 l48 24 2 254 3 254
250 -261 250 -262 3 77 3 76 -193 201 c-106 111 -221 233 -256 270 l-62 68 0
164 c0 91 4 165 8 165 7 0 326 -334 459 -479 l41 -45 45 30 46 30 -132 140
c-128 137 -388 411 -514 543 l-63 65 0 -673z"/>
</g>
</svg>
